<?xml version="1.0" encoding="utf-8"?>
<!-- Generator: Adobe Illustrator 23.0.1, SVG Export Plug-In . SVG Version: 6.00 Build 0)  -->
<svg version="1.1" id="Layer_1" xmlns="http://www.w3.org/2000/svg" xmlns:xlink="http://www.w3.org/1999/xlink" x="0px" y="0px"
	 viewBox="0 0 843 525" style="enable-background:new 0 0 843 525;" xml:space="preserve">
<style type="text/css">
	.st0{fill:#515151;}
	.st1{fill:#F5F5F5;fill-opacity:0.25;}
	.st2{fill:none;stroke:#111111;stroke-width:4;stroke-opacity:0.9;}
	.st3{fill:none;stroke:#111111;stroke-width:1.88;stroke-opacity:0.9;}
	.st4{fill-rule:evenodd;clip-rule:evenodd;fill:#F5F5F5;fill-opacity:0.25;}
	.st5{fill-opacity:0.25;stroke:#000000;stroke-width:4;}
	.st6{fill-opacity:0.25;}
	.st7{fill:none;stroke:#121212;stroke-width:4;}
	.st8{fill:#F5F5F5;fill-opacity:0.25;stroke:#121212;stroke-width:4;}
</style>
<title>GAMEPAD</title>
<g id="GAMEPAD">
	<rect id="BACKGROUND" y="1" class="st0" width="843" height="525"/>
	<g id="START">
		<circle class="st1" cx="318" cy="271" r="22"/>
		<circle class="st2" cx="318" cy="271" r="20"/>
	</g>
	<circle id="NOT_BUTTON" class="st2" cx="385.8" cy="171.7" r="33.7"/>
	<g id="RESET">
		<circle class="st1" cx="453" cy="271" r="22"/>
		<circle class="st2" cx="453" cy="271" r="20"/>
		<path class="st3" d="M446,263.1h15c0.5,0,0.9,0.4,0.9,0.9l0,0c0,0.5-0.4,0.9-0.9,0.9h-15c-0.5,0-0.9-0.4-0.9-0.9l0,0
			C445.1,263.5,445.5,263.1,446,263.1z"/>
		<path class="st3" d="M446,270.6h15c0.5,0,0.9,0.4,0.9,0.9l0,0c0,0.5-0.4,0.9-0.9,0.9h-15c-0.5,0-0.9-0.4-0.9-0.9l0,0
			C445.1,271,445.5,270.6,446,270.6z"/>
		<path class="st3" d="M446,278.1h15c0.5,0,0.9,0.4,0.9,0.9l0,0c0,0.5-0.4,0.9-0.9,0.9h-15c-0.5,0-0.9-0.4-0.9-0.9l0,0
			C445.1,278.5,445.5,278.1,446,278.1z"/>
	</g>
	<g id="Arrows">
		<path class="st4" d="M219,439.9c5.8,0,10.5,4.7,10.5,10.5v44.8c0,5.8,4.7,10.5,10.5,10.5h44.8c5.8,0,10.5-4.7,10.5-10.5v-44.8
			c0-5.8,4.7-10.5,10.5-10.5h44.8c5.8,0,10.5-4.7,10.5-10.5v-44.8c0-5.8-4.7-10.5-10.5-10.5h-44.8c-5.8,0-10.5-4.7-10.5-10.5v-44.8
			c0-5.8-4.7-10.5-10.5-10.5H240c-5.8,0-10.5,4.7-10.5,10.5v44.8c0,5.8-4.7,10.5-10.5,10.5h-44.8c-5.8,0-10.5,4.7-10.5,10.5v44.8
			c0,5.8,4.7,10.5,10.5,10.5H219z"/>
		<g>
			<path id="LRUD" d="M174.2,374.1L174.2,374.1z M219,374.1L219,374.1z M240,308.3L240,308.3z M295.3,318.8L295.3,318.8z
				 M284.8,308.3L284.8,308.3z M305.9,374.1L305.9,374.1z M350.6,374.1L350.6,374.1z M295.3,450.4L295.3,450.4z M305.9,439.9
				L305.9,439.9z M219,439.9L219,439.9z M234.8,495.2v-44.8h-10.5v44.8H234.8z M284.8,500.5H240V511h44.8V500.5z M290.1,450.4v44.8
				h10.5v-44.8H290.1z M350.6,434.6h-44.8v10.5h44.8V434.6z M355.9,384.6v44.8h10.5v-44.8H355.9z M305.9,379.4h44.8v-10.5h-44.8
				V379.4z M290.1,318.8v44.8h10.5v-44.8H290.1z M240,313.5h44.8V303H240V313.5z M234.8,363.6v-44.8h-10.5v44.8H234.8z M174.2,379.4
				H219v-10.5h-44.8V379.4z M169,429.4v-44.8h-10.5v44.8H169z M219,434.6h-44.8v10.5H219V434.6z M158.4,429.4
				c0,8.7,7.1,15.8,15.8,15.8v-10.5c-2.9,0-5.3-2.4-5.3-5.3H158.4z M174.2,368.8c-8.7,0-15.8,7.1-15.8,15.8H169
				c0-2.9,2.4-5.3,5.3-5.3V368.8z M224.2,363.6c0,2.9-2.4,5.3-5.3,5.3v10.5c8.7,0,15.8-7.1,15.8-15.8H224.2z M240,303
				c-8.7,0-15.8,7.1-15.8,15.8h10.5c0-2.9,2.4-5.3,5.3-5.3V303z M300.6,318.8c0-8.7-7.1-15.8-15.8-15.8v10.5c2.9,0,5.3,2.4,5.3,5.3
				H300.6z M305.9,368.8c-2.9,0-5.3-2.4-5.3-5.3h-10.5c0,8.7,7.1,15.8,15.8,15.8V368.8z M366.4,384.6c0-8.7-7.1-15.8-15.8-15.8v10.5
				c2.9,0,5.3,2.4,5.3,5.3H366.4z M350.6,445.2c8.7,0,15.8-7.1,15.8-15.8h-10.5c0,2.9-2.4,5.3-5.3,5.3V445.2z M300.6,450.4
				c0-2.9,2.4-5.3,5.3-5.3v-10.5c-8.7,0-15.8,7.1-15.8,15.8H300.6z M284.8,511c8.7,0,15.8-7.1,15.8-15.8h-10.5
				c0,2.9-2.4,5.3-5.3,5.3V511z M234.8,450.4c0-8.7-7.1-15.8-15.8-15.8v10.5c2.9,0,5.3,2.4,5.3,5.3H234.8z M224.2,495.2
				c0,8.7,7.1,15.8,15.8,15.8v-10.5c-2.9,0-5.3-2.4-5.3-5.3H224.2z"/>
		</g>
		<circle id="Center" class="st5" cx="262.4" cy="407" r="19.7"/>
		<rect id="DOWN" x="231.1" y="443.9" class="st6" width="61.9" height="59.2"/>
		<rect id="UP" x="231.1" y="312.2" class="st6" width="61.9" height="59.2"/>
		<rect id="RIGHT" x="295.6" y="376.1" class="st6" width="62.5" height="61.9"/>
		<rect id="LEFT" x="166.6" y="376.7" class="st6" width="61.9" height="61.9"/>
	</g>
	<path id="Rholder" class="st7" d="M512,355L512,355c34.2,0,62,27.8,62,62l0,0c0,34.2-27.8,62-62,62l0,0c-34.2,0-62-27.8-62-62l0,0
		C450,382.8,477.8,355,512,355z"/>
	<path id="Rstick" class="st8" d="M512,375L512,375c23.2,0,42,18.8,42,42l0,0c0,23.2-18.8,42-42,42l0,0c-23.2,0-42-18.8-42-42l0,0
		C470,393.8,488.8,375,512,375z"/>
	<path id="Lholder" class="st7" d="M146,212L146,212c34.2,0,62,27.8,62,62l0,0c0,34.2-27.8,62-62,62l0,0l0,0c-34.2,0-62-27.8-62-62
		l0,0l0,0C84,239.8,111.8,212,146,212z"/>
	<path id="Lstick" class="st8" d="M146,232L146,232c23.2,0,42,18.8,42,42l0,0l0,0c0,23.2-18.8,42-42,42l0,0c-23.2,0-42-18.8-42-42
		l0,0C104,250.8,122.8,232,146,232z"/>
	<g id="Y">
		<circle class="st1" cx="628" cy="211" r="30"/>
		<circle class="st2" cx="628" cy="211" r="28"/>
		<path d="M636.3,200.7c1,0.7,1.5,1.4,1.5,2c-0.1,0.6-0.3,1.2-0.7,1.6l-6.7,10v5.9c0,0.4,0,0.7-0.1,1.1c0,0.3-0.1,0.6-0.3,0.8
			c-0.2,0.3-0.5,0.6-0.8,0.6c-1,0.2-2.1,0.2-3.2,0c-0.4-0.1-0.7-0.3-0.8-0.6c-0.1-0.3-0.2-0.5-0.3-0.8c0-0.4,0-0.7,0-1.1v-5.9
			l-6.7-10c-0.4-0.5-0.6-1-0.7-1.6c0.1-0.8,0.6-1.5,1.4-1.9c0.6-0.5,1.2-0.8,2-0.9c0.3,0,0.7,0.1,0.9,0.2c0.5,0.3,0.8,0.8,1.1,1.3
			l4.8,7.7l4.8-7.7c0.2-0.5,0.6-0.9,1-1.2c0.3-0.2,0.6-0.3,1-0.3C635.1,200,635.8,200.3,636.3,200.7z"/>
	</g>
	<g id="A">
		<circle class="st1" cx="628" cy="336" r="30"/>
		<circle class="st2" cx="628" cy="336" r="28"/>
		<path d="M630.3,326.9l8.4,17.3c0.3,0.5,0.5,1,0.5,1.6c0,0.7-0.6,1.4-1.8,2c-0.5,0.3-1.1,0.5-1.7,0.5c-0.4,0-0.7-0.1-1-0.3
			c-0.2-0.2-0.4-0.4-0.6-0.6c-0.1-0.2-0.3-0.5-0.5-0.9l-1.6-3.4h-8.6l-1.6,3.4c-0.2,0.4-0.4,0.7-0.5,0.9c-0.1,0.2-0.3,0.4-0.6,0.6
			c-0.3,0.2-0.6,0.3-1,0.3c-0.6-0.1-1.1-0.2-1.6-0.5c-1.2-0.6-1.8-1.2-1.8-2c0.1-0.6,0.2-1.1,0.5-1.6l8.4-17.3
			c0.2-0.5,0.6-0.9,1-1.1c0.4-0.3,1-0.4,1.5-0.4C629,325.2,629.9,325.9,630.3,326.9z M627.8,334.3l-2,4.3h4.1L627.8,334.3z"/>
	</g>
	<g id="X">
		<circle class="st1" cx="566" cy="273" r="30"/>
		<circle class="st2" cx="566" cy="273" r="28"/>
		<path d="M570.2,273.5l6.2,6.9c0.6,0.5,1,1.2,1.1,2c-0.1,0.8-0.6,1.4-1.2,1.9c-0.5,0.6-1.2,1-2,1.1c-0.5,0-1.2-0.4-1.9-1.2
			l-5.9-6.8l-5.9,6.8c-0.5,0.7-1.1,1.1-1.9,1.2c-0.8-0.1-1.5-0.5-2-1.1c-0.6-0.5-1.1-1.1-1.2-1.9c0.1-0.8,0.5-1.5,1.1-2l6.2-6.9
			l-6.2-6.9c-0.6-0.5-1-1.2-1.1-2c0.1-0.8,0.6-1.5,1.2-1.9c0.5-0.6,1.2-1,2-1.1c0.8,0.1,1.5,0.6,1.9,1.2l5.9,6.8l5.9-6.8
			c0.8-0.8,1.4-1.2,1.9-1.2c0.8,0.1,1.5,0.5,2,1.1c0.6,0.5,1.1,1.2,1.2,1.9c-0.1,0.8-0.5,1.5-1.1,2L570.2,273.5z"/>
	</g>
	<g id="B">
		<circle class="st1" cx="692" cy="273" r="30"/>
		<circle class="st2" cx="692" cy="273" r="28"/>
		<path d="M699.4,272.8c2.6,2.9,2.4,7.3-0.3,10.1c-1.3,1.4-3.1,2.1-5,2.1H686c-1.5,0-2.3-0.4-2.5-1.2c-0.2-0.5-0.2-1.1-0.2-1.6V265
			c0-0.5,0-0.9,0-1.1c0.1-0.3,0.2-0.6,0.3-0.8c0.3-0.5,1.1-0.8,2.4-0.8h7.8c1.8,0,3.5,0.7,4.8,2c1.3,1.3,2,3,2,4.8
			C700.6,270.4,700.2,271.7,699.4,272.8z M695.8,277.4c0-0.4,0-0.8-0.2-1.2c-0.1-0.3-0.3-0.5-0.6-0.6c-0.6-0.2-1.1-0.3-1.7-0.3
			c-0.6,0-1.2-0.1-1.7-0.4c-0.4-0.5-0.6-1.1-0.6-1.8c-0.1-0.7,0.1-1.3,0.6-1.8c0.6-0.3,1.3-0.5,1.9-0.4c0.8,0,1.3-0.2,1.5-0.7
			c0.1-0.4,0.1-0.7,0.1-1.1c0-0.4-0.2-0.9-0.5-1.1c-0.5-0.2-1-0.3-1.5-0.3h-4.3v11.8h5.1C695.1,279.5,695.8,278.8,695.8,277.4
			L695.8,277.4z"/>
	</g>
	<g id="LB">
		<path class="st1" d="M51.1,59.1c5.1-3.9,10.9-6.6,17.2-8.1l50-12.1l62.4-8.9l64.2-2.6c6.6-0.3,12.8,2.9,16.4,8.4l20.4,31.1
			c2.8,4.3,1.6,10.1-2.7,12.9c-1.7,1.1-3.7,1.7-5.8,1.5l-66.9-4.6c-5.1-0.3-10.2,1.4-13.9,4.9l-11,10.1c-3.6,3.3-8.3,5.1-13.2,4.9
			L113,95.2c-2.4-0.1-4.7-0.6-6.9-1.5L52.5,70.6c-3.4-1.5-4.9-5.4-3.5-8.8C49.5,60.8,50.2,59.8,51.1,59.1z"/>
		<path class="st2" d="M118.7,40.9l62.2-8.9l64.1-2.6c5.9-0.2,11.4,2.6,14.6,7.5L280,68c2.2,3.4,1.3,8-2.1,10.2
			c-1.3,0.9-2.9,1.3-4.5,1.2l-66.9-4.5c-5.7-0.4-11.3,1.6-15.5,5.4l-11,10.1c-3.2,3-7.4,4.5-11.8,4.4L113,93.2
			c-2.1-0.1-4.2-0.5-6.1-1.4L53.3,68.7c-2.4-1-3.5-3.7-2.5-6.1c0.3-0.7,0.8-1.4,1.5-1.9c4.9-3.7,10.5-6.3,16.5-7.7L118.7,40.9z"/>
		<path d="M140.5,83.1h8.4c0.5,0,1,0.1,1.5,0.3c0.3,0.1,0.5,0.4,0.6,0.7c0.1,0.4,0.2,0.9,0.2,1.3c0,0.4,0,0.9-0.2,1.3
			c-0.1,0.3-0.3,0.5-0.5,0.7c-0.5,0.2-1.1,0.3-1.6,0.3h-11.2c-1.4,0-2.3-0.4-2.5-1.2c-0.1-0.5-0.2-1-0.2-1.6V67.7c0-0.5,0-0.8,0-1.1
			c0.1-0.3,0.2-0.6,0.3-0.8c0.3-0.5,1.1-0.8,2.4-0.8s2.3,0.4,2.6,1.1c0.1,0.5,0.2,1.1,0.1,1.6L140.5,83.1z M169.4,75.6
			c2.6,2.9,2.4,7.3-0.3,10.1c-1.3,1.4-3.1,2.1-5,2.1h-8.1c-1.4,0-2.3-0.4-2.5-1.2c-0.2-0.5-0.2-1.1-0.2-1.6V67.7c0-0.5,0-0.8,0-1.1
			c0.1-0.3,0.2-0.6,0.3-0.8c0.3-0.5,1.1-0.8,2.4-0.8h7.8c1.8,0,3.5,0.7,4.8,2c1.3,1.3,2,3,2,4.8C170.5,73.2,170.1,74.5,169.4,75.6z
			 M165.7,80.1c0-0.4-0.1-0.8-0.2-1.2c-0.1-0.3-0.3-0.5-0.6-0.6c-0.6-0.2-1.1-0.3-1.7-0.3c-0.6,0-1.2-0.1-1.7-0.4
			c-0.4-0.5-0.7-1.1-0.6-1.8c-0.1-0.7,0.1-1.3,0.6-1.8c0.6-0.3,1.3-0.5,1.9-0.4c0.8,0,1.3-0.2,1.5-0.7c0.1-0.4,0.1-0.7,0.1-1.1
			c0-0.4-0.2-0.9-0.5-1.1c-0.5-0.2-1-0.3-1.5-0.3h-4.3v11.8h5.1C165.1,82.2,165.7,81.5,165.7,80.1z"/>
	</g>
	<g id="LT">
		<path class="st1" d="M65.6,129c8.4,20,27.1,33.9,48.7,36.2l11.6,1.3c24,2.6,46.2-13.1,51.8-36.6l0,0c1.9-8.1-3.1-16.1-11.1-18.1
			c-1-0.2-2-0.4-3-0.4l-35.4-1.1c-5.1-0.2-10.2-1.4-14.8-3.6L59.7,81.4c-3.7-1.8-8.2-0.2-10,3.6c-0.9,1.9-1,4.1-0.1,6.1L65.6,129z"
			/>
		<path class="st2" d="M114.6,163.3l11.6,1.2c23,2.5,44.2-12.5,49.6-35c1.7-7-2.7-14-9.6-15.7c-0.9-0.2-1.7-0.3-2.6-0.3l-35.4-1.1
			c-5.4-0.2-10.7-1.4-15.7-3.8L58.8,83.2c-2.7-1.3-6-0.1-7.3,2.6c-0.7,1.4-0.7,3-0.1,4.5l16,38C75.6,147.6,93.7,161,114.6,163.3z"/>
		<path d="M118.9,144.5h8.4c0.5,0,1,0.1,1.5,0.3c0.3,0.1,0.5,0.4,0.6,0.7c0.1,0.4,0.2,0.9,0.2,1.3c0,0.4,0,0.9-0.2,1.3
			c-0.1,0.3-0.3,0.5-0.5,0.7c-0.5,0.2-1.1,0.3-1.6,0.3h-11.2c-1.4,0-2.3-0.4-2.5-1.2c-0.1-0.5-0.2-1-0.2-1.6v-17.2
			c0-0.5,0-0.8,0-1.1c0.1-0.3,0.2-0.6,0.3-0.8c0.3-0.6,1.1-0.8,2.4-0.8s2.3,0.4,2.6,1.1c0.1,0.5,0.2,1.1,0.1,1.6L118.9,144.5z
			 M133.1,126.4h17.2c0.5,0,1,0.1,1.5,0.2c0.3,0.1,0.5,0.4,0.6,0.7c0.2,0.9,0.2,1.7,0,2.6c-0.1,0.3-0.3,0.5-0.5,0.6
			c-0.5,0.2-1,0.3-1.6,0.3h-5.9v15.6c0,0.4,0,0.7-0.1,1.1c0,0.3-0.1,0.6-0.3,0.8c-0.2,0.3-0.5,0.5-0.8,0.6c-0.5,0.1-1,0.2-1.5,0.2
			c-0.5,0-1.1,0-1.6-0.2c-0.3-0.1-0.6-0.3-0.8-0.6c-0.1-0.3-0.2-0.5-0.3-0.8c0-0.3,0-0.6,0-1.1v-15.6h-6c-0.5,0-1,0-1.5-0.2
			c-0.3-0.1-0.5-0.4-0.6-0.7c-0.1-0.4-0.2-0.9-0.1-1.3c0-0.4,0.1-0.9,0.2-1.3c0.1-0.3,0.3-0.5,0.5-0.7
			C132,126.5,132.5,126.4,133.1,126.4z"/>
	</g>
	<g id="RT">
		<path class="st1" d="M773.4,129c-8.5,20-27.1,33.9-48.7,36.2l-11.6,1.3c-24,2.6-46.2-13.1-51.8-36.6l0,0
			c-1.9-8.1,3.1-16.1,11.1-18.1c1-0.2,2-0.4,3-0.4l35.4-1.1c5.1-0.2,10.2-1.4,14.8-3.6l53.6-25.4c3.7-1.8,8.2-0.2,10,3.6
			c0.9,1.9,1,4.1,0.1,6.1L773.4,129z"/>
		<path class="st2" d="M724.4,163.3l-11.6,1.2c-23,2.5-44.2-12.5-49.6-35c-1.7-7,2.7-14,9.6-15.7c0.9-0.2,1.7-0.3,2.6-0.3l35.4-1.1
			c5.4-0.2,10.7-1.4,15.7-3.8l53.6-25.4c2.7-1.3,6-0.1,7.3,2.6c0.7,1.4,0.7,3,0.1,4.5l-16,38C763.3,147.7,745.3,161,724.4,163.3z"/>
		<path d="M705.1,145.3c0.2,0.5,0.4,1.1,0.5,1.6c0,0.8-0.6,1.5-1.9,2c-0.5,0.3-1,0.4-1.6,0.4c-0.4,0-0.7-0.1-1-0.3
			c-0.2-0.2-0.4-0.4-0.6-0.6c-0.2-0.4-1-2.3-2.4-5.6l-1,0.1h-3.9v3.5c0,0.4,0,0.7-0.1,1.1c0,0.3-0.1,0.6-0.3,0.8
			c-0.3,0.6-1.1,0.8-2.4,0.8s-2.3-0.4-2.5-1.1c-0.2-0.5-0.2-1.1-0.2-1.6v-17.2c0-0.5,0-0.8,0-1.1c0.1-0.3,0.2-0.6,0.3-0.8
			c0.3-0.6,1.1-0.8,2.4-0.8h6.7c1.9,0.1,3.8,0.8,5.3,2c0.9,0.7,1.5,1.6,2,2.6c0.5,1.1,0.8,2.4,0.8,3.7c0.1,2.1-0.7,4.2-2.2,5.7
			C703.4,141.5,704.1,143.1,705.1,145.3z M693.2,137.4h4c0.7,0,1.3-0.3,1.8-0.7c0.6-0.5,0.9-1.2,0.9-2c0-0.8-0.3-1.5-0.9-2
			c-0.5-0.4-1.2-0.7-1.9-0.7h-3.9L693.2,137.4z M707.5,126.4h17.2c0.5,0,1,0.1,1.5,0.2c0.3,0.1,0.5,0.4,0.6,0.7
			c0.2,0.9,0.2,1.7,0,2.6c-0.1,0.3-0.3,0.5-0.5,0.6c-0.5,0.2-1,0.3-1.6,0.3h-5.9v15.6c0,0.4,0,0.7-0.1,1.1c0,0.3-0.1,0.6-0.3,0.8
			c-0.2,0.3-0.5,0.5-0.8,0.6c-1,0.3-2.1,0.3-3.1,0c-0.3-0.1-0.6-0.3-0.8-0.6c-0.1-0.3-0.2-0.5-0.3-0.8c0-0.4,0-0.7,0-1.1v-15.6h-6
			c-0.5,0-1,0-1.5-0.2c-0.3-0.1-0.5-0.4-0.6-0.7c-0.1-0.4-0.2-0.9-0.2-1.3c0-0.4,0-0.9,0.2-1.3c0.1-0.3,0.3-0.5,0.5-0.7
			C706.4,126.5,707,126.4,707.5,126.4z"/>
	</g>
	<g id="RB">
		<path class="st1" d="M787.9,59.1c-5.1-3.9-10.9-6.6-17.2-8.1l-50-12.1L658.3,30l-64.2-2.6c-6.6-0.3-12.8,2.9-16.4,8.4l-20.4,31
			c-2.8,4.3-1.6,10.1,2.7,12.9c1.7,1.1,3.7,1.7,5.8,1.5l66.9-4.5c5.1-0.3,10.2,1.4,13.9,4.9l11,10.1c3.6,3.3,8.3,5.1,13.2,4.9
			l55.2-1.6c2.4-0.1,4.7-0.6,6.9-1.5l53.6-23.1c3.4-1.4,4.9-5.4,3.5-8.7C789.5,60.8,788.8,59.8,787.9,59.1L787.9,59.1z"/>
		<path class="st2" d="M720.3,40.9L658.1,32L594,29.4c-5.9-0.2-11.4,2.6-14.6,7.5L559,68c-2.2,3.4-1.3,8,2.1,10.2
			c1.3,0.9,2.9,1.3,4.5,1.2l66.9-4.5c5.7-0.4,11.3,1.6,15.4,5.4l11,10.1c3.2,3,7.4,4.5,11.8,4.4l55.3-1.6c2.1-0.1,4.2-0.5,6.1-1.4
			l53.6-23.1c2.4-1,3.5-3.7,2.5-6.1c-0.3-0.7-0.8-1.4-1.5-1.9c-4.9-3.7-10.5-6.3-16.5-7.7L720.3,40.9z"/>
		<path d="M690.3,79.9c0.2,0.5,0.4,1.1,0.5,1.6c0,0.8-0.6,1.5-1.9,2c-0.5,0.3-1.1,0.4-1.6,0.4c-0.4,0-0.7-0.1-1-0.3
			c-0.2-0.2-0.4-0.4-0.6-0.6c-0.2-0.4-1-2.3-2.4-5.6l-1,0.1h-3.9V81c0,0.4,0,0.7-0.1,1.1c0,0.3-0.1,0.6-0.3,0.8
			c-0.3,0.6-1.1,0.8-2.4,0.8s-2.3-0.4-2.5-1.1c-0.1-0.5-0.2-1-0.1-1.6V63.8c0-0.5,0-0.8,0-1.1c0.1-0.3,0.2-0.6,0.3-0.8
			c0.3-0.6,1.1-0.8,2.4-0.8h6.7c1.9,0.1,3.8,0.8,5.3,2c0.9,0.7,1.5,1.6,2,2.6c0.6,1.1,0.8,2.4,0.8,3.7c0.1,2.2-0.8,4.3-2.3,5.8
			C688.6,76.2,689.3,77.8,690.3,79.9z M678.4,72h4c0.7,0,1.3-0.3,1.8-0.7c0.6-0.5,0.9-1.2,0.9-2c0.1-0.8-0.3-1.6-0.9-2
			c-0.5-0.4-1.2-0.7-1.9-0.7h-3.9L678.4,72z M708.6,71.6c2.6,2.9,2.4,7.3-0.3,10.1c-1.3,1.4-3.1,2.1-5,2.1h-8.2
			c-1.5,0-2.3-0.4-2.5-1.2c-0.1-0.5-0.2-1.1-0.2-1.6V63.7c0-0.5,0-0.9,0-1.1c0.1-0.3,0.2-0.6,0.3-0.8c0.3-0.6,1.1-0.8,2.4-0.8h7.8
			c1.8,0,3.5,0.7,4.8,2c1.3,1.3,2,3,2,4.8C709.8,69.2,709.4,70.5,708.6,71.6L708.6,71.6z M705,76.1c0-0.4-0.1-0.8-0.2-1.1
			c-0.1-0.3-0.3-0.5-0.6-0.6c-0.6-0.2-1.1-0.3-1.7-0.3c-0.6,0-1.2-0.1-1.7-0.4c-0.4-0.5-0.6-1.1-0.6-1.8c-0.1-0.7,0.1-1.3,0.6-1.8
			c0.6-0.3,1.3-0.5,1.9-0.4c0.8,0,1.3-0.2,1.5-0.6c0.1-0.4,0.1-0.7,0.1-1.1c0-0.4-0.2-0.9-0.5-1.1c-0.5-0.2-1-0.3-1.5-0.3H698v11.7
			h5C704.3,78.2,705,77.5,705,76.1z"/>
	</g>
</g>
</svg>
